<svg xmlns="http://www.w3.org/2000/svg" xmlns:xlink="http://www.w3.org/1999/xlink" width="100" zoomAndPan="magnify" viewBox="0 0 75 30.000001" height="40" preserveAspectRatio="xMidYMid meet" version="1.0"><defs><g/><clipPath id="6ee603ee5f"><path d="M 60 10 L 73.789062 10 L 73.789062 18 L 60 18 Z M 60 10 " clip-rule="nonzero"/></clipPath></defs><g fill="#6366f1" fill-opacity="1"><g transform="translate(1.719538, 17.153225)"><g><path d="M 0.28125 -5.0625 C 0.28125 -6.519531 0.773438 -7.753906 1.765625 -8.765625 C 2.765625 -9.785156 3.96875 -10.296875 5.375 -10.296875 C 6.789062 -10.296875 7.992188 -9.789062 8.984375 -8.78125 C 9.972656 -7.769531 10.46875 -6.53125 10.46875 -5.0625 C 10.46875 -3.582031 9.976562 -2.335938 9 -1.328125 C 8.03125 -0.316406 6.820312 0.1875 5.375 0.1875 C 3.894531 0.1875 2.675781 -0.3125 1.71875 -1.3125 C 0.757812 -2.3125 0.28125 -3.5625 0.28125 -5.0625 Z M 2.765625 -5.0625 C 2.765625 -4.53125 2.847656 -4.046875 3.015625 -3.609375 C 3.179688 -3.171875 3.46875 -2.800781 3.875 -2.5 C 4.28125 -2.195312 4.78125 -2.046875 5.375 -2.046875 C 6.226562 -2.046875 6.875 -2.335938 7.3125 -2.921875 C 7.75 -3.515625 7.96875 -4.226562 7.96875 -5.0625 C 7.96875 -5.882812 7.742188 -6.59375 7.296875 -7.1875 C 6.859375 -7.78125 6.21875 -8.078125 5.375 -8.078125 C 4.539062 -8.078125 3.894531 -7.78125 3.4375 -7.1875 C 2.988281 -6.59375 2.765625 -5.882812 2.765625 -5.0625 Z M 2.765625 -5.0625 "/></g></g></g><g fill="#6366f1" fill-opacity="1"><g transform="translate(11.299915, 17.153225)"><g><path d="M 2.328125 -6.28125 L 3.859375 -2.859375 L 5.390625 -6.28125 L 7.96875 -6.28125 L 4.59375 0 L 3.125 0 L -0.25 -6.28125 Z M 2.328125 -6.28125 "/></g></g></g><g fill="#6366f1" fill-opacity="1"><g transform="translate(17.857856, 17.153225)"><g><path d="M 7.09375 -2.84375 L 2.53125 -2.84375 C 2.53125 -2.40625 2.671875 -2.078125 2.953125 -1.859375 C 3.242188 -1.648438 3.554688 -1.546875 3.890625 -1.546875 C 4.242188 -1.546875 4.519531 -1.59375 4.71875 -1.6875 C 4.925781 -1.78125 5.160156 -1.960938 5.421875 -2.234375 L 7 -1.453125 C 6.34375 -0.359375 5.253906 0.1875 3.734375 0.1875 C 2.785156 0.1875 1.972656 -0.132812 1.296875 -0.78125 C 0.617188 -1.4375 0.28125 -2.222656 0.28125 -3.140625 C 0.28125 -4.054688 0.617188 -4.835938 1.296875 -5.484375 C 1.972656 -6.140625 2.785156 -6.46875 3.734375 -6.46875 C 4.734375 -6.46875 5.546875 -6.175781 6.171875 -5.59375 C 6.796875 -5.019531 7.109375 -4.203125 7.109375 -3.140625 C 7.109375 -2.992188 7.101562 -2.894531 7.09375 -2.84375 Z M 2.59375 -4.046875 L 4.984375 -4.046875 C 4.929688 -4.367188 4.800781 -4.617188 4.59375 -4.796875 C 4.382812 -4.972656 4.117188 -5.0625 3.796875 -5.0625 C 3.441406 -5.0625 3.15625 -4.96875 2.9375 -4.78125 C 2.726562 -4.59375 2.613281 -4.347656 2.59375 -4.046875 Z M 2.59375 -4.046875 "/></g></g></g><g fill="#6366f1" fill-opacity="1"><g transform="translate(24.08541, 17.153225)"><g><path d="M 0.734375 0 L 0.734375 -6.28125 L 2.90625 -6.28125 L 2.90625 -5.375 L 2.921875 -5.375 C 2.941406 -5.40625 2.96875 -5.445312 3 -5.5 C 3.039062 -5.550781 3.125 -5.632812 3.25 -5.75 C 3.375 -5.875 3.503906 -5.984375 3.640625 -6.078125 C 3.773438 -6.179688 3.953125 -6.269531 4.171875 -6.34375 C 4.398438 -6.425781 4.625 -6.46875 4.84375 -6.46875 C 5.082031 -6.46875 5.316406 -6.429688 5.546875 -6.359375 C 5.773438 -6.296875 5.941406 -6.234375 6.046875 -6.171875 L 6.21875 -6.078125 L 5.3125 -4.234375 C 5.039062 -4.460938 4.664062 -4.578125 4.1875 -4.578125 C 3.925781 -4.578125 3.703125 -4.519531 3.515625 -4.40625 C 3.328125 -4.289062 3.191406 -4.148438 3.109375 -3.984375 C 3.035156 -3.828125 2.984375 -3.691406 2.953125 -3.578125 C 2.921875 -3.460938 2.90625 -3.375 2.90625 -3.3125 L 2.90625 0 Z M 0.734375 0 "/></g></g></g><g fill="#6366f1" fill-opacity="1"><g transform="translate(29.028128, 17.153225)"><g><path d="M 0.734375 0 L 0.734375 -10.53125 L 2.90625 -10.53125 L 2.90625 0 Z M 0.734375 0 "/></g></g></g><g fill="#6366f1" fill-opacity="1"><g transform="translate(31.511292, 17.153225)"><g><path d="M 1.15625 -0.765625 C 0.570312 -1.410156 0.28125 -2.195312 0.28125 -3.125 C 0.28125 -4.0625 0.570312 -4.851562 1.15625 -5.5 C 1.75 -6.144531 2.5 -6.46875 3.40625 -6.46875 C 4.238281 -6.46875 4.925781 -6.207031 5.46875 -5.6875 L 5.46875 -6.28125 L 7.625 -6.28125 L 7.625 0 L 5.484375 0 L 5.484375 -0.703125 L 5.46875 -0.703125 C 4.925781 -0.109375 4.238281 0.1875 3.40625 0.1875 C 2.5 0.1875 1.75 -0.128906 1.15625 -0.765625 Z M 3 -4.203125 C 2.71875 -3.921875 2.578125 -3.5625 2.578125 -3.125 C 2.578125 -2.695312 2.710938 -2.347656 2.984375 -2.078125 C 3.253906 -1.804688 3.613281 -1.671875 4.0625 -1.671875 C 4.476562 -1.671875 4.820312 -1.804688 5.09375 -2.078125 C 5.375 -2.359375 5.515625 -2.710938 5.515625 -3.140625 C 5.515625 -3.566406 5.375 -3.921875 5.09375 -4.203125 C 4.8125 -4.484375 4.46875 -4.625 4.0625 -4.625 C 3.644531 -4.625 3.289062 -4.484375 3 -4.203125 Z M 3 -4.203125 "/></g></g></g><g fill="#6366f1" fill-opacity="1"><g transform="translate(38.71777, 17.153225)"><g><path d="M 5.5 -6.28125 L 8 -6.28125 L 3.0625 3.1875 L 0.5625 3.1875 L 2.734375 -0.984375 L -0.25 -6.28125 L 2.25 -6.28125 L 4 -3.0625 Z M 5.5 -6.28125 "/></g></g></g><g fill="#ec4899" fill-opacity="1"><g transform="translate(45.313288, 17.153225)"><g><path d="M 3.03125 -6.265625 L 3.03125 0 L 0.734375 0 L 0.734375 -10.109375 L 3.03125 -10.109375 L 7.0625 -3.828125 L 7.078125 -3.828125 L 7.078125 -10.109375 L 9.390625 -10.109375 L 9.390625 0 L 7.078125 0 L 3.0625 -6.265625 Z M 3.03125 -6.265625 "/></g></g></g><g fill="#ec4899" fill-opacity="1"><g transform="translate(54.269604, 17.153225)"><g><path d="M 1.328125 -0.734375 C 0.628906 -1.359375 0.28125 -2.15625 0.28125 -3.125 C 0.28125 -4.101562 0.644531 -4.90625 1.375 -5.53125 C 2.101562 -6.15625 3 -6.46875 4.0625 -6.46875 C 5.113281 -6.46875 6 -6.148438 6.71875 -5.515625 C 7.445312 -4.890625 7.8125 -4.09375 7.8125 -3.125 C 7.8125 -2.164062 7.457031 -1.375 6.75 -0.75 C 6.050781 -0.125 5.15625 0.1875 4.0625 0.1875 C 2.9375 0.1875 2.023438 -0.117188 1.328125 -0.734375 Z M 3 -4.203125 C 2.71875 -3.921875 2.578125 -3.5625 2.578125 -3.125 C 2.578125 -2.695312 2.710938 -2.347656 2.984375 -2.078125 C 3.253906 -1.804688 3.613281 -1.671875 4.0625 -1.671875 C 4.476562 -1.671875 4.820312 -1.804688 5.09375 -2.078125 C 5.375 -2.359375 5.515625 -2.710938 5.515625 -3.140625 C 5.515625 -3.566406 5.375 -3.921875 5.09375 -4.203125 C 4.8125 -4.484375 4.46875 -4.625 4.0625 -4.625 C 3.644531 -4.625 3.289062 -4.484375 3 -4.203125 Z M 3 -4.203125 "/></g></g></g><g clip-path="url(#6ee603ee5f)"><g fill="#ec4899" fill-opacity="1"><g transform="translate(61.206883, 17.153225)"><g><path d="M 4.59375 0 L 3.125 0 L -0.25 -6.28125 L 2.25 -6.28125 L 3.78125 -2.890625 L 5.296875 -6.28125 L 6.78125 -6.28125 L 8.296875 -2.890625 L 9.828125 -6.28125 L 12.328125 -6.28125 L 8.953125 0 L 7.484375 0 L 6.046875 -3.25 Z M 4.59375 0 "/></g></g></g></g></svg>